<?xml version="1.0" encoding="UTF-8" standalone="no"?><!DOCTYPE svg PUBLIC "-//W3C//DTD SVG 1.1//EN" "http://www.w3.org/Graphics/SVG/1.1/DTD/svg11.dtd"><svg width="100%" height="100%" viewBox="0 0 64 64" version="1.1" xmlns="http://www.w3.org/2000/svg" xmlns:xlink="http://www.w3.org/1999/xlink" xml:space="preserve" xmlns:serif="http://www.serif.com/" style="fill-rule:evenodd;clip-rule:evenodd;stroke-linecap:round;stroke-linejoin:round;stroke-miterlimit:1.5;"><path d="M0,34l0,30" style="fill:none;stroke:#000;stroke-width:0.05px;"/><path d="M64,64l0,-30" style="fill:none;stroke:#000;stroke-width:0.05px;"/><path d="M0,22c0,0 2.764,17.096 4,13.87c6.031,-15.745 7.427,5.804 21,8.13c4.786,0.82 7.876,0.351 8,-5c0.23,-9.893 9.514,-1.269 13.006,-3c0.49,-0.243 6.08,-3.308 6.312,-7c0.303,-4.808 0.232,-9.493 1.682,-8c1.89,1.946 2.529,1.328 3.298,1c1.556,-0.664 2.732,-6.117 2.702,-8c-0.025,-1.571 0.233,-1.829 1,-2c0.767,-0.171 1.121,-4.264 2,-5c0.879,-0.736 1,4 1,4l0,53l-64,0l0,-42Z" style="fill:#017fe8;"/><circle cx="13" cy="13" r="6" style="fill:#017fe8;"/><circle cx="36" cy="26" r="6" style="fill:#017fe8;"/><circle cx="16" cy="30" r="1" style="fill:#017fe8;"/><circle cx="52" cy="9" r="1" style="fill:#017fe8;"/><circle cx="29" cy="13" r="1" style="fill:#017fe8;"/><circle cx="2.5" cy="3.5" r="0.5" style="fill:#017fe8;"/><circle cx="2.5" cy="18.5" r="0.5" style="fill:#017fe8;"/><circle cx="48.5" cy="29.5" r="0.5" style="fill:#017fe8;"/><circle cx="24.5" cy="36.5" r="2.5" style="fill:#017fe8;"/><circle cx="28" cy="6" r="2" style="fill:#017fe8;"/><circle cx="39.5" cy="9.5" r="0.5" style="fill:#017fe8;"/><circle cx="44.5" cy="17.5" r="0.5" style="fill:#017fe8;"/><circle cx="59.5" cy="1.5" r="0.5" style="fill:#017fe8;"/><circle cx="43.5" cy="1.5" r="1.5" style="fill:#017fe8;"/><circle cx="14.5" cy="30.5" r="1.5" style="fill:#017fe8;"/><circle cx="22.5" cy="22.5" r="1.5" style="fill:#017fe8;"/><circle cx="6" cy="27" r="2" style="fill:#017fe8;"/><circle cx="44.5" cy="17.5" r="2.5" style="fill:#017fe8;"/><circle cx="36.5" cy="15.5" r="0.5" style="fill:#017fe8;"/><circle cx="52.5" cy="19.5" r="0.5" style="fill:#017fe8;"/></svg>